<?xml version="1.0" standalone="no"?>
<!DOCTYPE svg PUBLIC "-//W3C//DTD SVG 20010904//EN"
 "http://www.w3.org/TR/2001/REC-SVG-20010904/DTD/svg10.dtd">
<svg version="1.0" xmlns="http://www.w3.org/2000/svg"
 width="260.000000pt" height="260.000000pt" viewBox="0 0 260.000000 260.000000"
 preserveAspectRatio="xMidYMid meet">
<metadata>
Created by potrace 1.14, written by Peter Selinger 2001-2017
</metadata>
<g transform="translate(0.000000,260.000000) scale(0.100000,-0.100000)"
fill="#000000" stroke="none">
<path d="M0 1300 l0 -1170 835 0 835 0 4 23 c3 12 69 521 146 1132 77 611 143
1127 146 1148 l6 37 -986 0 -986 0 0 -1170z m914 946 c132 -59 175 -161 176
-417 0 -58 -3 -134 -6 -168 l-7 -61 -88 0 -88 0 -3 208 c-3 238 -9 258 -78
286 -55 22 -165 21 -209 -2 -72 -36 -76 -49 -79 -279 -5 -289 13 -373 85 -401
16 -7 77 -23 137 -37 213 -50 294 -118 324 -275 17 -88 23 -294 13 -431 -14
-188 -52 -259 -166 -311 -42 -19 -72 -23 -179 -26 -261 -8 -366 60 -396 255
-6 37 -9 151 -8 253 l3 185 93 3 92 3 1 -213 c0 -232 6 -268 52 -302 40 -29
196 -35 247 -9 66 34 71 58 68 318 -3 203 -5 235 -22 268 -28 56 -76 83 -206
113 -195 45 -257 89 -302 210 -20 53 -22 83 -26 303 -3 160 0 266 8 305 26
137 93 211 213 236 72 15 306 6 351 -14z"/>
<path d="M2260 2458 c0 -7 -65 -524 -145 -1150 -80 -626 -145 -1147 -145
-1158 0 -19 6 -20 148 -20 l148 0 147 1158 c81 636 147 1163 147 1170 0 17
-300 18 -300 0z"/>
</g>
</svg>
