<svg width="50" height="45" fill="none" xmlns="http://www.w3.org/2000/svg"><path fill-rule="evenodd" clip-rule="evenodd" d="M32.122 0H0v45h26.386l5.736-45zM8.376 39.776c1.125.983 2.953 1.474 5.484 1.474 2.468 0 4.25-.491 5.343-1.474 1.125-.983 1.734-2.61 1.828-4.884.031-.952.047-1.98.047-3.086 0-1.106-.016-2.135-.047-3.087-.063-2.272-.531-3.977-1.406-5.113-.844-1.137-2.36-1.95-4.547-2.442l-2.437-.553c-.875-.184-1.484-.583-1.828-1.198-.344-.645-.531-1.627-.563-2.948-.03-1.198-.062-2.334-.093-3.41 0-1.105.031-2.241.094-3.408.062-1.014.359-1.72.89-2.12.531-.43 1.406-.644 2.625-.644 1.25 0 2.125.215 2.624.645.532.399.813 1.105.844 2.119.063 1.105.078 2.242.047 3.409 0 1.136-.015 2.396-.047 3.778h3.61c.03-1.229.046-2.411.046-3.548v-3.178c-.094-2.273-.687-3.901-1.781-4.884-1.094-.983-2.86-1.474-5.296-1.474-2.531 0-4.36.491-5.484 1.474-1.125.983-1.719 2.595-1.781 4.837a115.828 115.828 0 00-.047 3.271v3.133c.062 2.303.453 4.023 1.172 5.16.718 1.136 2.03 1.935 3.937 2.395l2.625.6c1.093.276 1.859.72 2.296 1.335.469.584.735 1.505.797 2.764.031.983.047 2.089.047 3.317a38.009 38.009 0 01-.047 3.317c-.094 1.014-.406 1.736-.938 2.165-.5.4-1.359.6-2.577.6-1.282 0-2.188-.2-2.719-.6-.531-.43-.828-1.151-.89-2.165a79.007 79.007 0 010-7.74H6.64a80.393 80.393 0 00-.093 3.686c0 1.106.015 2.304.047 3.593.062 2.273.656 3.901 1.78 4.884z" fill="#1A8CCB"/><path d="M32.122 0h5.736l-5.736 45h-5.736l5.736-45z" fill="#7FB627"/><path d="M37.858 0h5.736l-5.736 45h-5.736l5.736-45z" fill="#FAC81B"/><path d="M43.594 0h5.736l-5.736 45h-5.736l5.736-45z" fill="#EE7C09"/></svg>