<svg width="202" height="29" fill="none" xmlns="http://www.w3.org/2000/svg"><rect x="125" width="77" height="29" rx="5" fill="#7EBC68"/><path d="M137.359 13.742h2.969v1.735h-2.969v3.382h-1.843v-3.382h-2.985v-1.735h2.985v-3.164h1.843v3.164zm13.946 3.29c0-.444-.141-.808-.422-1.095-.281-.291-.75-.552-1.406-.78-.657-.235-1.167-.451-1.532-.65-1.213-.65-1.82-1.614-1.82-2.89 0-.864.263-1.575.789-2.133.526-.557 1.24-.888 2.141-.992V6.79h1.25v1.719c.906.13 1.606.515 2.101 1.156.495.636.742 1.464.742 2.484h-1.89c0-.656-.149-1.171-.446-1.546-.291-.38-.69-.57-1.195-.57-.5 0-.89.135-1.172.405-.281.271-.422.66-.422 1.165 0 .453.138.817.415 1.093.281.271.755.529 1.421.774.667.245 1.19.471 1.571.68.38.208.7.447.961.718.26.266.461.573.601.922.141.349.211.758.211 1.227 0 .88-.271 1.593-.812 2.14-.537.547-1.287.87-2.25.969v1.523h-1.243v-1.515c-1.031-.115-1.825-.485-2.382-1.11-.552-.625-.828-1.453-.828-2.484h1.898c0 .656.164 1.164.492 1.523.333.36.802.54 1.406.54.594 0 1.045-.144 1.352-.43.312-.287.469-.667.469-1.14zM159.992 20h-1.89v-9.133l-2.79.953V10.22l4.438-1.633h.242V20zm9.86-11.43v1.57h-.235c-1.062.016-1.911.308-2.547.876-.635.567-1.013 1.372-1.132 2.414.609-.64 1.388-.961 2.335-.961 1.006 0 1.797.354 2.375 1.062.584.709.875 1.623.875 2.742 0 1.157-.341 2.094-1.023 2.813-.677.713-1.568 1.07-2.672 1.07-1.135 0-2.057-.419-2.766-1.258-.703-.838-1.054-1.937-1.054-3.296v-.649c0-1.995.484-3.557 1.453-4.687.974-1.13 2.372-1.696 4.195-1.696h.196zm-2.04 5.43a2.065 2.065 0 00-1.906 1.29v.577c0 .844.177 1.516.532 2.016.354.495.812.742 1.374.742.563 0 1.008-.21 1.336-.633.329-.422.493-.976.493-1.664 0-.687-.167-1.247-.5-1.68a1.595 1.595 0 00-1.329-.648zm12.391-2.375a2.66 2.66 0 01-.43 1.492 2.991 2.991 0 01-1.171 1.024c.593.276 1.049.653 1.367 1.132.323.48.484 1.021.484 1.625 0 1-.338 1.795-1.015 2.383-.678.584-1.579.875-2.704.875-1.13 0-2.036-.294-2.718-.883-.677-.588-1.016-1.38-1.016-2.375 0-.609.161-1.156.484-1.64.323-.485.776-.857 1.36-1.117a2.998 2.998 0 01-1.164-1.024 2.693 2.693 0 01-.422-1.492c0-.969.312-1.737.937-2.305.625-.567 1.469-.851 2.532-.851 1.067 0 1.914.284 2.539.851.625.568.937 1.336.937 2.305zm-1.648 5.18c0-.563-.17-1.016-.508-1.36-.333-.349-.776-.523-1.328-.523s-.995.172-1.328.515c-.329.344-.493.8-.493 1.368 0 .557.162 1.002.485 1.336.328.333.778.5 1.351.5s1.019-.162 1.336-.485c.323-.323.485-.773.485-1.351zm-.243-5.11c0-.495-.143-.9-.429-1.218-.287-.323-.672-.485-1.156-.485-.485 0-.868.154-1.149.461-.281.302-.422.716-.422 1.242 0 .521.141.935.422 1.242.287.308.672.461 1.156.461.485 0 .868-.153 1.149-.46.286-.308.429-.722.429-1.243zM183.438 18c.354 0 .627.102.82.305.193.198.289.448.289.75 0 .297-.096.544-.289.742-.193.193-.466.289-.82.289-.339 0-.607-.096-.805-.29a.99.99 0 01-.297-.741c0-.302.096-.552.289-.75.193-.203.464-.305.813-.305zm3.671-3.64l.618-5.735h6.109v1.64h-4.531l-.313 2.72a3.512 3.512 0 011.781-.454c1.084 0 1.925.347 2.524 1.04.604.692.906 1.624.906 2.796 0 1.156-.333 2.078-1 2.766-.667.682-1.581 1.023-2.742 1.023-1.042 0-1.906-.294-2.594-.883-.682-.593-1.052-1.375-1.109-2.343h1.836c.073.552.271.976.594 1.273.322.292.744.438 1.265.438.583 0 1.037-.209 1.359-.625.329-.417.493-.985.493-1.703 0-.693-.18-1.24-.539-1.641-.36-.406-.855-.61-1.485-.61-.343 0-.635.047-.875.141-.239.089-.5.266-.781.531l-1.516-.375zM6.398 17.031c0-.442-.14-.807-.421-1.093-.282-.292-.75-.553-1.407-.782-.656-.234-1.166-.45-1.53-.648-1.214-.651-1.821-1.615-1.821-2.89 0-.865.263-1.576.789-2.134.526-.557 1.24-.888 2.14-.992V6.79h1.25v1.719c.907.13 1.607.515 2.102 1.156.495.636.742 1.464.742 2.484h-1.89c0-.656-.149-1.171-.446-1.546-.291-.38-.69-.57-1.195-.57-.5 0-.89.135-1.172.405-.281.271-.422.66-.422 1.165 0 .453.138.817.414 1.093.281.271.755.529 1.422.774.667.245 1.19.471 1.57.68.38.208.701.447.961.718.26.266.461.573.602.922.14.349.21.758.21 1.227 0 .88-.27 1.593-.812 2.14-.536.547-1.286.87-2.25.969v1.523H3.992v-1.515c-1.031-.115-1.825-.485-2.383-1.11-.552-.625-.828-1.453-.828-2.484H2.68c0 .656.164 1.164.492 1.523.333.36.802.54 1.406.54.594 0 1.044-.144 1.352-.43.312-.287.468-.667.468-1.14zM15.086 20h-1.89v-9.133l-2.79.953V10.22l4.438-1.633h.242V20zm9.094 0h-1.89v-9.133l-2.79.953V10.22l4.438-1.633h.242V20zm11.117-8.375c0 .557-.143 1.055-.43 1.492a2.992 2.992 0 01-1.172 1.024c.594.276 1.05.653 1.367 1.132.323.48.485 1.021.485 1.625 0 1-.339 1.795-1.016 2.383-.677.584-1.578.875-2.703.875-1.13 0-2.036-.294-2.719-.883-.677-.588-1.015-1.38-1.015-2.375 0-.609.161-1.156.484-1.64.323-.485.776-.857 1.36-1.117a3.005 3.005 0 01-1.165-1.024 2.7 2.7 0 01-.421-1.492c0-.969.312-1.737.937-2.305.625-.567 1.469-.851 2.531-.851 1.068 0 1.914.284 2.54.851.624.568.937 1.336.937 2.305zm-1.649 5.18c0-.563-.169-1.016-.507-1.36-.334-.349-.776-.523-1.328-.523-.553 0-.995.172-1.329.515-.328.344-.492.8-.492 1.368 0 .557.162 1.002.485 1.336.328.333.778.5 1.351.5s1.018-.162 1.336-.485c.323-.323.484-.773.484-1.351zm-.242-5.11c0-.495-.143-.9-.43-1.218-.286-.323-.671-.485-1.156-.485-.484 0-.867.154-1.148.461-.281.302-.422.716-.422 1.242 0 .521.14.935.422 1.242.286.308.672.461 1.156.461.485 0 .867-.153 1.149-.46.286-.308.43-.722.43-1.243zm12.313 2.047h2.968v1.735H45.72v3.382h-1.844v-3.382h-2.984v-1.735h2.984v-3.164h1.844v3.164zm14.578-.297h1.156c.583-.005 1.044-.156 1.383-.453.344-.297.516-.726.516-1.289 0-.541-.144-.96-.43-1.258-.281-.302-.714-.453-1.297-.453-.51 0-.93.149-1.258.445-.328.292-.492.675-.492 1.149h-1.898c0-.583.153-1.115.46-1.594.313-.479.745-.851 1.297-1.117.558-.27 1.18-.406 1.868-.406 1.135 0 2.026.286 2.671.86.651.567.977 1.358.977 2.374 0 .51-.164.992-.492 1.445a3.045 3.045 0 01-1.258 1.016c.625.214 1.099.55 1.422 1.008.328.458.492 1.005.492 1.64 0 1.021-.352 1.834-1.055 2.438-.697.604-1.617.906-2.757.906-1.094 0-1.99-.291-2.688-.875-.698-.583-1.047-1.36-1.047-2.328h1.899c0 .5.166.906.5 1.219.338.312.791.469 1.359.469.589 0 1.052-.157 1.39-.47.34-.312.508-.765.508-1.358 0-.6-.177-1.06-.53-1.383-.355-.323-.881-.485-1.579-.485h-1.117v-1.5zm14.312 1.766c0 1.635-.307 2.87-.921 3.703-.61.828-1.54 1.242-2.79 1.242-1.229 0-2.156-.403-2.78-1.21-.62-.813-.938-2.014-.954-3.602v-1.969c0-1.635.305-2.862.914-3.68.615-.817 1.55-1.226 2.805-1.226 1.245 0 2.172.398 2.781 1.195.615.797.93 1.99.945 3.578v1.969zm-1.898-2.125c0-1.068-.146-1.849-.438-2.344-.291-.5-.755-.75-1.39-.75-.62 0-1.076.237-1.367.711-.292.469-.446 1.203-.461 2.203v2.578c0 1.063.148 1.854.445 2.375.297.521.763.782 1.398.782.61 0 1.06-.24 1.352-.72.292-.483.445-1.239.46-2.265v-2.57zm3.5-2.274c0-.687.221-1.25.664-1.687.443-.443 1.023-.664 1.742-.664.73 0 1.313.221 1.75.664.443.438.664 1.013.664 1.727v.562c0 .682-.221 1.242-.664 1.68-.437.437-1.015.656-1.734.656-.703 0-1.284-.213-1.742-.64-.454-.433-.68-1.014-.68-1.743v-.555zm1.328.602c0 .36.099.651.297.875.203.219.469.328.797.328.323 0 .583-.11.781-.328.198-.224.297-.526.297-.906v-.57c0-.36-.102-.652-.305-.876-.198-.223-.46-.335-.789-.335-.328 0-.591.114-.789.343-.193.224-.289.521-.289.89v.58zm4.14 5.797c0-.698.227-1.263.68-1.695.454-.433 1.032-.649 1.735-.649.708 0 1.286.216 1.734.649.453.432.68 1.015.68 1.75v.554c0 .677-.219 1.237-.656 1.68-.433.438-1.014.656-1.743.656-.729 0-1.317-.216-1.765-.648-.443-.438-.664-1.013-.664-1.727v-.57zm1.329.61c0 .353.101.645.305.874.208.224.474.336.796.336.334 0 .594-.107.782-.32.192-.219.289-.523.289-.914v-.586c0-.365-.102-.656-.305-.875a1.019 1.019 0 00-.781-.328c-.323 0-.586.11-.79.328-.197.219-.296.52-.296.906v.578zm-3.985 1.327l-.976-.562 5.555-8.89.976.562-5.555 8.89zm20.016-5.242h-6.734v-1.578h6.734v1.578zm0 3.313h-6.734v-1.57h6.734v1.57z" fill="#fff"/></svg>