<svg xmlns="http://www.w3.org/2000/svg" fill="none" viewBox="0 0 173 68"><rect width="55" height="29" x="118" y="39" fill="#7EBC68" rx="5"/><path fill="#fff" d="M130.359 52.742h2.969v1.735h-2.969v3.382h-1.843v-3.382h-2.985v-1.735h2.985v-3.164h1.843v3.164zm10.594-.297h1.156c.584-.005 1.045-.156 1.383-.453.344-.297.516-.726.516-1.289 0-.542-.143-.96-.43-1.258-.281-.302-.713-.453-1.297-.453-.51 0-.929.149-1.258.446-.328.291-.492.674-.492 1.148h-1.898c0-.583.153-1.115.461-1.594a3.13 3.13 0 011.297-1.117 4.224 4.224 0 011.867-.406c1.135 0 2.026.286 2.672.86.651.567.976 1.358.976 2.374 0 .51-.164.992-.492 1.445a3.044 3.044 0 01-1.258 1.016c.625.214 1.099.55 1.422 1.008.328.458.492 1.005.492 1.64 0 1.021-.351 1.834-1.054 2.438-.698.604-1.618.906-2.758.906-1.094 0-1.99-.291-2.688-.875-.698-.583-1.047-1.36-1.047-2.328h1.899c0 .5.167.906.5 1.219.338.312.792.469 1.359.469.589 0 1.052-.157 1.391-.47.338-.312.508-.765.508-1.358 0-.6-.177-1.06-.532-1.383-.354-.323-.88-.485-1.578-.485h-1.117v-1.5zm14.313 1.766c0 1.635-.308 2.87-.922 3.703-.61.828-1.539 1.242-2.789 1.242-1.229 0-2.157-.403-2.782-1.21-.619-.813-.937-2.014-.953-3.602v-1.969c0-1.635.305-2.862.914-3.68.615-.817 1.55-1.226 2.805-1.226 1.245 0 2.172.398 2.781 1.195.615.797.93 1.99.946 3.578v1.969zm-1.899-2.125c0-1.068-.146-1.849-.437-2.344-.292-.5-.756-.75-1.391-.75-.62 0-1.075.237-1.367.711-.292.469-.445 1.203-.461 2.203v2.578c0 1.063.148 1.855.445 2.375.297.521.763.782 1.399.782.609 0 1.06-.24 1.351-.72.292-.483.446-1.239.461-2.265v-2.57zm3.5-2.273c0-.688.222-1.25.664-1.688.443-.443 1.024-.664 1.742-.664.73 0 1.313.221 1.75.664.443.438.665 1.013.665 1.727v.562c0 .682-.222 1.242-.665 1.68-.437.437-1.015.656-1.734.656-.703 0-1.284-.214-1.742-.64-.453-.433-.68-1.014-.68-1.743v-.554zm1.328.601c0 .36.099.651.297.875.203.219.469.328.797.328.323 0 .583-.11.781-.328.198-.224.297-.526.297-.906v-.57c0-.36-.101-.652-.305-.876-.197-.223-.46-.335-.789-.335-.328 0-.591.114-.789.343-.192.224-.289.521-.289.89v.58zm4.141 5.797c0-.698.226-1.263.68-1.695.453-.433 1.031-.649 1.734-.649.708 0 1.286.216 1.734.649.454.432.68 1.015.68 1.75v.554c0 .677-.219 1.237-.656 1.68-.432.438-1.013.656-1.742.656-.73 0-1.318-.216-1.766-.648-.443-.438-.664-1.013-.664-1.727v-.57zm1.328.61c0 .354.102.645.305.874.208.224.474.336.797.336.333 0 .593-.106.781-.32.193-.219.289-.523.289-.914v-.586c0-.365-.102-.656-.305-.875a1.018 1.018 0 00-.781-.328c-.323 0-.586.11-.789.328-.198.219-.297.52-.297.906v.578zm-3.984 1.327l-.977-.562 5.555-8.89.976.562-5.554 8.89z"/><rect width="55" height="29" x="118" fill="#7EBC68" rx="5"/><path fill="#fff" d="M130.359 13.742h2.969v1.735h-2.969v3.382h-1.843v-3.382h-2.985v-1.735h2.985v-3.164h1.843v3.164zm13.946 3.29c0-.444-.141-.808-.422-1.095-.281-.291-.75-.552-1.406-.78-.657-.235-1.167-.451-1.532-.65-1.213-.65-1.82-1.614-1.82-2.89 0-.864.263-1.575.789-2.133.526-.557 1.24-.888 2.141-.992V6.79h1.25v1.719c.906.13 1.606.515 2.101 1.156.495.636.742 1.464.742 2.484h-1.89c0-.656-.149-1.171-.446-1.546-.291-.38-.69-.57-1.195-.57-.5 0-.89.135-1.172.405-.281.271-.422.66-.422 1.165 0 .453.138.817.415 1.093.281.271.755.529 1.421.774.667.245 1.19.471 1.571.68.38.208.7.447.961.718.26.266.461.573.601.922.141.349.211.758.211 1.227 0 .88-.271 1.593-.812 2.14-.537.547-1.287.87-2.25.969v1.523h-1.243v-1.515c-1.031-.115-1.825-.485-2.382-1.11-.552-.625-.828-1.453-.828-2.484h1.898c0 .656.164 1.164.492 1.523.333.36.802.54 1.406.54.594 0 1.045-.144 1.352-.43.312-.287.469-.667.469-1.14zm5.742-3.587h1.156c.583-.005 1.044-.156 1.383-.453.344-.297.516-.726.516-1.289 0-.541-.144-.96-.43-1.258-.281-.302-.714-.453-1.297-.453-.51 0-.93.149-1.258.445-.328.292-.492.675-.492 1.149h-1.898c0-.583.153-1.115.461-1.594a3.127 3.127 0 011.296-1.117 4.22 4.22 0 011.868-.406c1.135 0 2.026.286 2.671.86.651.567.977 1.358.977 2.374 0 .51-.164.992-.492 1.445a3.044 3.044 0 01-1.258 1.016c.625.214 1.099.55 1.422 1.008.328.458.492 1.005.492 1.64 0 1.021-.352 1.834-1.055 2.438-.698.604-1.617.906-2.757.906-1.094 0-1.99-.291-2.688-.875-.698-.583-1.047-1.36-1.047-2.328h1.899c0 .5.166.906.5 1.219.338.312.791.469 1.359.469.589 0 1.052-.157 1.391-.47.338-.312.507-.765.507-1.358 0-.6-.177-1.06-.531-1.383-.354-.323-.88-.485-1.578-.485h-1.117v-1.5zm12.805-4.875v1.57h-.235c-1.062.016-1.911.308-2.547.876-.635.567-1.013 1.372-1.132 2.414.609-.64 1.388-.961 2.335-.961 1.006 0 1.797.354 2.375 1.062.584.709.875 1.623.875 2.742 0 1.157-.341 2.094-1.023 2.813-.677.713-1.568 1.07-2.672 1.07-1.135 0-2.057-.419-2.766-1.258-.703-.838-1.054-1.937-1.054-3.296v-.649c0-1.995.484-3.557 1.453-4.687.974-1.13 2.372-1.696 4.195-1.696h.196zm-2.04 5.43a2.065 2.065 0 00-1.906 1.29v.577c0 .844.177 1.516.532 2.016.354.495.812.742 1.374.742.563 0 1.008-.21 1.336-.633.329-.422.493-.976.493-1.664 0-.687-.167-1.247-.5-1.68a1.595 1.595 0 00-1.329-.648zM6.398 36.031c0-.442-.14-.807-.421-1.093-.282-.292-.75-.553-1.407-.782-.656-.234-1.166-.45-1.53-.648-1.214-.651-1.821-1.615-1.821-2.89 0-.865.263-1.576.789-2.134.526-.557 1.24-.888 2.14-.992V25.79h1.25v1.719c.907.13 1.607.515 2.102 1.156.495.635.742 1.464.742 2.484h-1.89c0-.656-.149-1.171-.446-1.546-.291-.38-.69-.57-1.195-.57-.5 0-.89.135-1.172.405-.281.271-.422.66-.422 1.165 0 .453.138.817.414 1.093.281.271.755.529 1.422.774.667.245 1.19.471 1.57.68.38.208.701.447.961.718.26.266.461.573.602.922.14.349.21.758.21 1.227 0 .88-.27 1.593-.812 2.14-.536.547-1.286.87-2.25.969v1.523H3.992v-1.515c-1.031-.115-1.825-.485-2.383-1.11-.552-.625-.828-1.453-.828-2.484H2.68c0 .656.164 1.164.492 1.523.333.36.802.54 1.406.54.594 0 1.044-.144 1.352-.43.312-.287.468-.667.468-1.14zM15.086 39h-1.89v-9.133l-2.79.953v-1.6l4.438-1.633h.242V39zm9.094 0h-1.89v-9.133l-2.79.953v-1.6l4.438-1.633h.242V39zm11.117-8.375c0 .557-.143 1.055-.43 1.492a2.992 2.992 0 01-1.172 1.024c.594.276 1.05.653 1.367 1.132.323.48.485 1.021.485 1.625 0 1-.339 1.795-1.016 2.383-.677.584-1.578.875-2.703.875-1.13 0-2.036-.294-2.719-.883-.677-.588-1.015-1.38-1.015-2.375 0-.609.161-1.156.484-1.64.323-.485.776-.857 1.36-1.117a3.005 3.005 0 01-1.165-1.024 2.7 2.7 0 01-.421-1.492c0-.969.312-1.737.937-2.305.625-.567 1.469-.851 2.531-.851 1.068 0 1.914.284 2.54.851.624.568.937 1.336.937 2.305zm-1.649 5.18c0-.563-.169-1.016-.507-1.36-.334-.349-.776-.523-1.328-.523-.553 0-.995.172-1.329.516-.328.343-.492.799-.492 1.367 0 .557.162 1.002.485 1.336.328.333.778.5 1.351.5s1.018-.162 1.336-.485c.323-.323.484-.773.484-1.351zm-.242-5.11c0-.494-.143-.9-.43-1.218-.286-.323-.671-.485-1.156-.485-.484 0-.867.154-1.148.461-.281.302-.422.716-.422 1.242 0 .521.14.935.422 1.242.286.308.672.461 1.156.461.485 0 .867-.153 1.149-.46.286-.308.43-.722.43-1.243zm11.61 4.235h-4.102v-1.532h4.102v1.532zm14.96 1.101c0-.442-.14-.807-.421-1.093-.282-.292-.75-.553-1.407-.782-.656-.234-1.166-.45-1.53-.648-1.214-.651-1.821-1.615-1.821-2.89 0-.865.263-1.576.789-2.134.526-.557 1.24-.888 2.14-.992V25.79h1.25v1.719c.907.13 1.607.515 2.102 1.156.495.635.742 1.464.742 2.484h-1.89c0-.656-.149-1.171-.446-1.546-.291-.38-.69-.57-1.195-.57-.5 0-.89.135-1.172.405-.281.271-.422.66-.422 1.165 0 .453.138.817.414 1.093.282.271.756.529 1.422.774.667.245 1.19.471 1.57.68.38.208.701.447.962.718.26.266.46.573.601.922.14.349.211.758.211 1.227 0 .88-.27 1.593-.813 2.14-.536.547-1.286.87-2.25.969v1.523H57.57v-1.515c-1.03-.115-1.825-.485-2.383-1.11-.552-.625-.828-1.453-.828-2.484h1.899c0 .656.164 1.164.492 1.523.333.36.802.54 1.406.54.594 0 1.044-.144 1.352-.43.312-.287.469-.667.469-1.14zm10.712-5.406c0 .557-.144 1.055-.43 1.492a2.991 2.991 0 01-1.172 1.024c.594.276 1.05.653 1.367 1.132.323.48.484 1.021.484 1.625 0 1-.338 1.795-1.015 2.383-.677.584-1.578.875-2.703.875-1.13 0-2.037-.294-2.719-.883-.677-.588-1.016-1.38-1.016-2.375 0-.609.162-1.156.485-1.64.323-.485.776-.857 1.36-1.117a3.004 3.004 0 01-1.165-1.024 2.699 2.699 0 01-.422-1.492c0-.969.313-1.737.938-2.305.625-.567 1.468-.851 2.53-.851 1.069 0 1.915.284 2.54.851.625.568.938 1.336.938 2.305zm-1.649 5.18c0-.563-.17-1.016-.508-1.36-.333-.349-.776-.523-1.328-.523s-.995.172-1.328.516c-.328.343-.492.799-.492 1.367 0 .557.161 1.002.484 1.336.328.333.779.5 1.352.5.573 0 1.018-.162 1.336-.485.323-.323.484-.773.484-1.351zm-.242-5.11c0-.494-.143-.9-.43-1.218-.286-.323-.672-.485-1.156-.485-.484 0-.867.154-1.148.461-.282.302-.422.716-.422 1.242 0 .521.14.935.421 1.242.287.308.672.461 1.157.461.484 0 .867-.153 1.148-.46.287-.308.43-.722.43-1.243zM80.266 39h-7.649v-1.305l3.79-4.133c.546-.609.934-1.117 1.163-1.523.235-.411.352-.823.352-1.234 0-.542-.154-.98-.461-1.313-.302-.333-.711-.5-1.227-.5-.614 0-1.09.188-1.43.563-.338.375-.507.888-.507 1.539h-1.899c0-.693.157-1.315.47-1.867.317-.558.767-.99 1.35-1.297.59-.308 1.266-.461 2.032-.461 1.104 0 1.974.278 2.61.836.64.552.96 1.317.96 2.297 0 .567-.161 1.164-.484 1.789-.318.62-.841 1.325-1.57 2.117l-2.782 2.976h5.282V39zm12.445-6.094h-6.734v-1.578h6.734v1.578zm0 3.313h-6.734v-1.57h6.734v1.57z"/></svg>